# xmcd
#
# Track frame offsets:
#	150
#	10311
#	29014
#	42339
#	66313
#	81912
#	97128
#	107104
#	115844
#
# Disc length: 1743 seconds
# Revision: 0
# Processed by: cddbd v1.5.2PL0 Copyright (c) Steve Scherf et al.
# Submitted via: dBpowerAMP V12.0
#
DISCID=7b06cd09
DTITLE=Flatland Hamony Experiment - A Night with Woody
DYEAR=2013
DGENRE=Bluegrass
TTITLE0=Wicked Path of Sin
TTITLE1=Tick Tock
TTITLE2=Buy the Ticket Take the Ride
TTITLE3=The Sentinel
TTITLE4=Mystery Train
TTITLE5=Fox on the Run
TTITLE6=Ballad of John Peter
TTITLE7=Musician’s Lament
TTITLE8=Just Over the Line
EXTD=
EXTT0=
EXTT1=
EXTT2=
EXTT3=
EXTT4=
EXTT5=
EXTT6=
EXTT7=
EXTT8=
PLAYORDER=
